<svg width="32" height="33" viewBox="0 0 32 33" fill="none" xmlns="http://www.w3.org/2000/svg">
<g clip-path="url(#clip0_9_412)">
<path d="M16 32.5C24.8366 32.5 32 25.3366 32 16.5C32 7.66344 24.8366 0.5 16 0.5C7.16344 0.5 0 7.66344 0 16.5C0 25.3366 7.16344 32.5 16 32.5Z" fill="white"/>
<path d="M26.6666 16.5C26.6666 15.2088 25.6187 14.1608 24.3275 14.1608C23.6912 14.1608 23.1298 14.4041 22.7181 14.8158C21.1275 13.6743 18.9193 12.9257 16.4865 12.8322L17.5532 7.83567L21.0152 8.56549C21.0526 9.44503 21.7824 10.1561 22.6807 10.1561C23.5976 10.1561 24.3462 9.4076 24.3462 8.49064C24.3462 7.57368 23.5976 6.82514 22.6807 6.82514C22.0257 6.82514 21.4643 7.19941 21.2023 7.76081L17.3286 6.93742C17.2163 6.91871 17.1041 6.93742 17.0105 6.99356C16.9169 7.0497 16.8608 7.14327 16.8234 7.25555L15.6444 12.8322C13.1555 12.907 10.9286 13.6368 9.31927 14.8158C8.90757 14.4228 8.32745 14.1608 7.70991 14.1608C6.41868 14.1608 5.37073 15.2088 5.37073 16.5C5.37073 17.4544 5.93213 18.2591 6.75552 18.6333C6.7181 18.8579 6.69938 19.1012 6.69938 19.3444C6.69938 22.9374 10.8725 25.838 16.0374 25.838C21.2023 25.838 25.3754 22.9374 25.3754 19.3444C25.3754 19.1012 25.3567 18.8766 25.3193 18.652C26.0865 18.2778 26.6666 17.4544 26.6666 16.5ZM10.6666 18.1655C10.6666 17.2485 11.4152 16.5 12.3321 16.5C13.2491 16.5 13.9976 17.2485 13.9976 18.1655C13.9976 19.0825 13.2491 19.831 12.3321 19.831C11.4152 19.831 10.6666 19.0825 10.6666 18.1655ZM19.9672 22.5632C18.8257 23.7047 16.6549 23.7795 16.0187 23.7795C15.3824 23.7795 13.1929 23.686 12.0701 22.5632C11.9017 22.3947 11.9017 22.114 12.0701 21.9456C12.2386 21.7772 12.5193 21.7772 12.6877 21.9456C13.3988 22.6567 14.9333 22.9187 16.0374 22.9187C17.1415 22.9187 18.6573 22.6567 19.3871 21.9456C19.5555 21.7772 19.8362 21.7772 20.0046 21.9456C20.1356 22.1327 20.1356 22.3947 19.9672 22.5632ZM19.6678 19.831C18.7508 19.831 18.0023 19.0825 18.0023 18.1655C18.0023 17.2485 18.7508 16.5 19.6678 16.5C20.5848 16.5 21.3333 17.2485 21.3333 18.1655C21.3333 19.0825 20.5848 19.831 19.6678 19.831Z" fill="#3C67C0"/>
</g>
<defs>
<clipPath id="clip0_9_412">
<rect width="32" height="32" fill="white" transform="translate(0 0.5)"/>
</clipPath>
</defs>
</svg>
