<svg width="16" height="13" viewBox="0 0 16 13" fill="none" xmlns="http://www.w3.org/2000/svg">
<g clip-path="url(#clip0_9_585)">
<path fill-rule="evenodd" clip-rule="evenodd" d="M12.3538 5.94885C12.3529 5.9476 12.3525 5.94604 12.3527 5.94451L13.3714 0.0047339C13.3718 0.00199894 13.3742 0 13.377 0H13.6994C13.7018 0 13.7041 0.00161231 13.7048 0.00398241L15.9998 7.2703C16.0005 7.27254 15.9997 7.27504 15.9978 7.2765L14.3057 8.5976C14.3032 8.5996 14.2995 8.59912 14.2976 8.59648L12.3538 5.94885ZM0 9.88648C0 9.88896 0.0015841 9.89112 0.00392597 9.89192L3.49199 11.0324C3.49368 11.033 3.49555 11.0326 3.49702 11.0317L11.2937 5.64906C11.295 5.64816 11.2958 5.64675 11.2961 5.64519L12.1322 0.0351897C12.1326 0.0317468 12.13 0.0286532 12.1266 0.0286532H5.22063C5.21892 0.0286532 5.21733 0.0294079 5.21624 0.0307146L0.0013106 6.32173C0.000463415 6.32276 0 6.32404 0 6.32538V9.88648ZM4.94549 11.323L8.75616 12.5712C8.75784 12.5718 8.75976 12.5715 8.7612 12.5705L13.2981 9.31616C13.3006 9.3144 13.3012 9.31096 13.2994 9.3084L11.5987 6.7775C11.597 6.77486 11.5934 6.77417 11.5908 6.77598L4.94549 11.323Z" fill="#8BCEC1"/>
</g>
<defs>
<clipPath id="clip0_9_585">
<rect width="16" height="12.8" fill="white"/>
</clipPath>
</defs>
</svg>
