<svg width="16" height="13" viewBox="0 0 16 13" fill="none" xmlns="http://www.w3.org/2000/svg">
<g clip-path="url(#clip0_9_556)">
<path fill-rule="evenodd" clip-rule="evenodd" d="M11.7369 0.0166016L11.7831 4.07551L8.2429 5.77497L8.19922 1.94258L11.7369 0.0166016Z" fill="#8BCEC1"/>
<path fill-rule="evenodd" clip-rule="evenodd" d="M15.2859 6.41254L11.7813 8.41712L8.27466 6.40938L11.7795 4.56836L15.2859 6.41254Z" fill="#8BCEC1"/>
<path fill-rule="evenodd" clip-rule="evenodd" d="M7.65111 6.41254L4.14655 8.41712L0.639893 6.40938L4.14473 4.56836L7.65111 6.41254Z" fill="#8BCEC1"/>
<path fill-rule="evenodd" clip-rule="evenodd" d="M4.10706 0L7.74455 1.80152L7.65154 5.72741L4.21707 4.02645L4.10706 0Z" fill="#8BCEC1"/>
<path fill-rule="evenodd" clip-rule="evenodd" d="M11.8359 12.7634L8.19836 10.9619L8.2914 7.03601L11.7259 8.73702L11.8359 12.7634Z" fill="#8BCEC1"/>
<path fill-rule="evenodd" clip-rule="evenodd" d="M4.23252 12.8L4.18628 8.74107L7.72652 7.04163L7.77018 10.8739L4.23252 12.8Z" fill="#8BCEC1"/>
</g>
<defs>
<clipPath id="clip0_9_556">
<rect width="16" height="12.8" fill="white"/>
</clipPath>
</defs>
</svg>
