<svg width="16" height="26" viewBox="0 0 16 26" fill="none" xmlns="http://www.w3.org/2000/svg">
<path fill-rule="evenodd" clip-rule="evenodd" d="M15.5712 16.5103C15.5712 20.794 12.0855 24.2667 7.78563 24.2667C3.48573 24.2667 0 20.794 0 16.5103C0 12.344 7.36448 0.901688 7.76837 0.27728C7.77761 0.263042 7.79369 0.263042 7.80288 0.277282C8.20677 0.901688 15.5712 12.344 15.5712 16.5103ZM6.48779 21.78C2.53699 20.9155 3.21305 16.5391 3.21305 16.5391C3.21305 16.5391 4.29188 19.1809 6.90992 20.0368C9.52791 20.8925 12.6917 19.6373 12.6917 19.6373C12.6917 19.6373 10.4386 22.6444 6.48779 21.78Z" fill="#88A3D4"/>
</svg>
