<svg width="16" height="22" viewBox="0 0 16 22" fill="none" xmlns="http://www.w3.org/2000/svg">
<path fill-rule="evenodd" clip-rule="evenodd" d="M11.8106 16.1149C12.0648 15.1855 11.5714 13.2749 11.5714 13.2749C11.5714 13.2749 11.2136 14.8314 10.6544 15.4066C10.1774 15.8974 9.59303 16.2377 8.7549 16.3272C9.44015 15.9943 9.91141 15.3003 9.91141 14.4982C9.91141 13.3721 8.9828 12.4592 7.8373 12.4592C6.69182 12.4592 5.76317 13.3721 5.76317 14.4982C5.76317 14.8057 5.83247 15.0974 5.9565 15.3589C5.24004 14.788 5.12738 13.8729 5.12738 13.8729C5.12738 13.8729 4.32735 17.1945 6.53178 18.7569C8.73618 20.3194 13.0545 18.9765 13.0545 18.9765C13.0545 18.9765 6.87471 23.3247 2.2954 18.5921C-1.64931 14.5154 1.26582 9.14829 1.26582 9.14829C1.26582 9.14829 1.13992 9.64617 1.13992 10.2241C1.13992 10.8021 1.45329 11.2419 1.45329 11.2419C1.45329 11.2419 2.38805 9.27155 3.11552 8.47027C3.80402 7.71194 4.6671 7.09688 5.41257 6.56565C5.9864 6.15671 6.49056 5.79743 6.79166 5.4607C8.4501 3.60627 7.43322 0.228516 7.43322 0.228516C7.43322 0.228516 9.30274 1.87664 9.82466 4.00521C10.0236 4.81659 9.89561 5.73977 9.78119 6.56533C9.5954 7.90552 9.44526 8.98846 10.7874 8.91818C12.9563 8.80459 11.0716 5.4607 11.0716 5.4607C11.0716 5.4607 15.9915 8.04658 15.624 12.5691C15.2564 17.0918 10.2463 18.1199 10.2463 18.1199C10.2463 18.1199 11.5563 17.0442 11.8106 16.1149Z" fill="#F66D6D"/>
</svg>
