<svg width="20" height="20" viewBox="0 0 20 20" fill="none" xmlns="http://www.w3.org/2000/svg">
<g clip-path="url(#clip0_9_772)">
<path d="M3.05176e-05 10C3.06324e-05 8.68678 0.258689 7.38642 0.761235 6.17317C1.26378 4.95991 2.00038 3.85752 2.92896 2.92893C3.85755 2.00035 4.95994 1.26375 6.1732 0.761203C7.38645 0.258657 8.68681 -1.14804e-07 10 0C11.3132 1.1481e-07 12.6136 0.258658 13.8268 0.761206C15.0401 1.26375 16.1425 2.00035 17.0711 2.92893C17.9997 3.85752 18.7362 4.95991 19.2388 6.17317C19.7413 7.38642 20 8.68678 20 10H10H3.05176e-05Z" fill="url(#paint0_linear_9_772)" fill-opacity="0.5"/>
<path d="M10 19.25C15.1087 19.25 19.25 15.1086 19.25 10C19.25 4.89137 15.1087 0.75 10 0.75C4.8914 0.75 0.750031 4.89137 0.750031 10C0.750031 15.1086 4.8914 19.25 10 19.25Z" stroke="#F33C3C" stroke-width="1.5"/>
<path d="M10.0001 12.8864C11.5942 12.8864 12.8865 11.5941 12.8865 10C12.8865 8.40592 11.5942 7.11365 10.0001 7.11365C8.40604 7.11365 7.11377 8.40592 7.11377 10C7.11377 11.5941 8.40604 12.8864 10.0001 12.8864Z" fill="#FEFEFE" stroke="#F33C3C" stroke-width="1.5"/>
<path d="M6.81821 10H3.05176e-05" stroke="#F33C3C" stroke-width="1.5"/>
<path d="M18.8811 10H12.5874" stroke="#F33C3C" stroke-width="1.5"/>
</g>
<defs>
<linearGradient id="paint0_linear_9_772" x1="23" y1="1.75834e-07" x2="-2.99997" y2="9.5" gradientUnits="userSpaceOnUse">
<stop stop-color="#F33C3C"/>
<stop offset="1" stop-color="#F33C3C" stop-opacity="0"/>
</linearGradient>
<clipPath id="clip0_9_772">
<rect width="20" height="20" fill="white"/>
</clipPath>
</defs>
</svg>
