<svg width="32" height="33" viewBox="0 0 32 33" fill="none" xmlns="http://www.w3.org/2000/svg">
<g clip-path="url(#clip0_9_403)">
<path fill-rule="evenodd" clip-rule="evenodd" d="M16.0003 1.16667C12.202 1.16864 8.52813 2.51395 5.63578 4.96203C2.74344 7.41012 0.821164 10.8013 0.212685 14.5293C-0.395793 18.2573 0.349195 22.079 2.31445 25.3109C4.27971 28.5429 7.33708 30.9744 10.9399 32.1706C11.7347 32.3182 12.0341 31.8255 12.0341 31.4067C12.0341 30.9878 12.0182 29.7733 12.0129 28.4456C7.56182 29.4072 6.62127 26.5673 6.62127 26.5673C5.89532 24.7233 4.84614 24.2385 4.84614 24.2385C3.39425 23.2533 4.95478 23.2717 4.95478 23.2717C6.56299 23.385 7.40817 24.9129 7.40817 24.9129C8.83357 27.3445 11.1518 26.6411 12.0632 26.2301C12.2063 25.2001 12.6223 24.4993 13.0806 24.1015C9.52507 23.7011 5.78934 22.3365 5.78934 16.2406C5.76731 14.6596 6.35732 13.1307 7.43731 11.9702C7.27304 11.5698 6.7246 9.95231 7.59361 7.75524C7.59361 7.75524 8.9369 7.32847 11.9944 9.38592C14.6168 8.67283 17.3838 8.67283 20.0063 9.38592C23.0611 7.32847 24.4017 7.75524 24.4017 7.75524C25.2734 9.94704 24.7249 11.5645 24.5607 11.9702C25.6441 13.1309 26.2353 14.6625 26.2113 16.2458C26.2113 22.3549 22.4676 23.7011 18.9067 24.0936C19.479 24.5889 19.9904 25.5557 19.9904 27.0415C19.9904 29.1701 19.9718 30.8824 19.9718 31.4067C19.9718 31.8308 20.2606 32.3261 21.0713 32.1706C24.6746 30.9742 27.7322 28.5423 29.6974 25.3098C31.6627 22.0773 32.4073 18.2551 31.7981 14.5267C31.1889 10.7984 29.2657 7.40714 26.3724 4.95948C23.4791 2.51181 19.8044 1.16739 16.0056 1.16667H16.0003Z" fill="white"/>
<path d="M6.05921 24.0093C6.02476 24.0884 5.89759 24.1121 5.79426 24.0568C5.69094 24.0014 5.61411 23.8987 5.6512 23.817C5.68829 23.7354 5.81282 23.7143 5.91614 23.7696C6.01947 23.8249 6.09895 23.9303 6.05921 24.0093Z" fill="white"/>
<path d="M6.70835 24.7285C6.65348 24.756 6.5907 24.7637 6.53077 24.7502C6.47084 24.7368 6.41748 24.703 6.37982 24.6548C6.27649 24.5441 6.25528 24.3913 6.33477 24.3228C6.41425 24.2543 6.55733 24.2859 6.66066 24.3966C6.76399 24.5072 6.78783 24.66 6.70835 24.7285Z" fill="white"/>
<path d="M7.33903 25.6426C7.241 25.7111 7.07408 25.6426 6.98135 25.5057C6.95571 25.4811 6.93532 25.4516 6.92139 25.419C6.90746 25.3864 6.90027 25.3514 6.90027 25.316C6.90027 25.2806 6.90746 25.2455 6.92139 25.2129C6.93532 25.1803 6.95571 25.1509 6.98135 25.1263C7.07938 25.0605 7.2463 25.1263 7.33903 25.2607C7.43176 25.395 7.43441 25.5742 7.33903 25.6426V25.6426Z" fill="white"/>
<path d="M8.19474 26.5278C8.10731 26.6253 7.9298 26.5989 7.78408 26.4672C7.63836 26.3355 7.60391 26.1563 7.69134 26.0615C7.77877 25.9667 7.95628 25.993 8.1073 26.1221C8.25832 26.2512 8.28747 26.4329 8.19474 26.5278V26.5278Z" fill="white"/>
<path d="M9.39494 27.0441C9.3552 27.1679 9.17503 27.2233 8.99487 27.1706C8.81471 27.1179 8.69548 26.9704 8.72993 26.8439C8.76437 26.7175 8.94718 26.6595 9.12999 26.7175C9.31281 26.7754 9.42938 26.915 9.39494 27.0441Z" fill="white"/>
<path d="M10.7038 27.1337C10.7038 27.2628 10.5554 27.3734 10.3647 27.3761C10.1739 27.3787 10.0176 27.2733 10.0176 27.1442C10.0176 27.0151 10.1659 26.9045 10.3567 26.9019C10.5475 26.8992 10.7038 27.002 10.7038 27.1337Z" fill="white"/>
<path d="M11.9225 26.9308C11.9463 27.0599 11.8139 27.1943 11.6231 27.2259C11.4323 27.2575 11.2654 27.1811 11.2416 27.0547C11.2177 26.9282 11.3555 26.7912 11.541 26.757C11.7264 26.7227 11.8986 26.8018 11.9225 26.9308Z" fill="white"/>
</g>
<defs>
<clipPath id="clip0_9_403">
<rect width="32" height="32" fill="white" transform="translate(0 0.5)"/>
</clipPath>
</defs>
</svg>
