<svg width="16" height="13" viewBox="0 0 16 13" fill="none" xmlns="http://www.w3.org/2000/svg">
<g clip-path="url(#clip0_9_577)">
<path fill-rule="evenodd" clip-rule="evenodd" d="M0.641378 6.40906C0.639398 6.4057 0.639398 6.40151 0.641375 6.39811L4.383 0.00535621C4.38495 0.00204018 4.38852 0 4.39236 0H11.8084C11.8123 0 11.8159 0.00205767 11.8178 0.00540277L15.5184 6.39817C15.5204 6.40151 15.5204 6.40566 15.5184 6.40901L11.8178 12.7946C11.8159 12.7979 11.8123 12.8 11.8084 12.8H4.39236C4.38852 12.8 4.38495 12.798 4.383 12.7946L0.641378 6.40906ZM11.5272 6.4C11.5272 8.30328 9.98429 9.84616 8.08109 9.84616C6.17781 9.84616 4.63491 8.30328 4.63491 6.4C4.63491 4.49673 6.17781 2.95386 8.08109 2.95386C9.98429 2.95386 11.5272 4.49673 11.5272 6.4Z" fill="#6594A1"/>
</g>
<defs>
<clipPath id="clip0_9_577">
<rect width="16" height="12.8" fill="white"/>
</clipPath>
</defs>
</svg>
