<svg width="16" height="16" viewBox="0 0 16 16" fill="none" xmlns="http://www.w3.org/2000/svg">
<g clip-path="url(#clip0_9_548)">
<path fill-rule="evenodd" clip-rule="evenodd" d="M6.96958 13.5752C7.25755 13.6192 7.55248 13.642 7.85279 13.642C11.0502 13.642 13.6423 11.05 13.6423 7.85262C13.6423 4.65517 11.0502 2.06313 7.85279 2.06313C7.63828 2.06313 7.42645 2.0748 7.218 2.09754C8.80412 3.29918 9.85279 5.38076 9.85279 7.74734C9.85279 10.2354 8.69372 12.4084 6.96958 13.5752ZM7.74751 15.3263C11.9332 15.3263 15.3265 11.9331 15.3265 7.74734C15.3265 3.5616 11.9332 0.168396 7.74751 0.168396C3.56178 0.168396 0.168579 3.5616 0.168579 7.74734C0.168579 11.9331 3.56178 15.3263 7.74751 15.3263Z" fill="#595761"/>
</g>
<defs>
<clipPath id="clip0_9_548">
<rect width="16" height="16" fill="white"/>
</clipPath>
</defs>
</svg>
