<svg width="124" height="120" viewBox="0 0 124 120" fill="none" xmlns="http://www.w3.org/2000/svg">
<g clip-path="url(#clip0_56_192)">
<path d="M83.7897 25.709L19.9553 75.1265C19.2975 75.1996 18.32 75.0352 17.0226 74.6332C15.3964 74.1216 13.8524 73.3633 12.3906 72.3583C8.22452 69.5078 5.70294 65.4148 4.82586 60.0793C3.96707 54.963 4.75278 49.4722 7.18299 43.6068C7.98698 41.6699 8.97368 39.6691 10.1431 37.6043L12.281 34.0138C14.0168 30.9258 15.4512 27.8743 16.5841 24.8594C18.4662 19.8162 18.9778 16.0887 18.119 13.6767L18.9961 13.7864C19.6539 13.9143 20.1838 14.1518 20.5857 14.499C20.5309 13.9143 20.3756 13.2291 20.1198 12.4433C19.5899 10.8354 18.8316 9.48322 17.8449 8.38689L20.805 7.97576C23.3083 7.99403 25.8482 8.70665 28.4246 10.1136L28.2327 8.60615C28.1596 7.5829 28.2601 7.01646 28.5342 6.90683C28.9545 6.74238 29.5575 7.14437 30.3432 8.1128C30.3614 7.30882 30.535 6.3952 30.8639 5.37195C31.5035 3.362 32.5815 1.84539 34.0981 0.822144L35.6056 3.5904C37.0126 5.58208 38.7302 6.96164 40.7584 7.72908C42.5308 8.42343 46.5507 8.95333 52.8181 9.31877C58.8845 9.68422 63.1603 10.4334 65.6453 11.5663L68.2765 11.7855C70.4144 12.0596 72.3878 12.5621 74.1967 13.293C80.0256 15.6501 83.2233 19.7888 83.7897 25.709Z" fill="#68AE28"/>
<path d="M6.71713 65.4514C2.58759 57.6674 3.5743 48.7231 9.67725 38.6185C6.58923 46.7863 7.63075 53.3186 12.8018 58.2156C15.0493 60.3352 17.8815 61.8883 21.2984 62.875C24.6423 63.8252 28.1871 64.1358 31.9329 63.8069L19.1606 75.3459C17.2968 75.1815 15.2229 74.277 12.9389 72.6325C10.3259 70.7139 8.25201 68.3202 6.71713 65.4514Z" fill="#56931F"/>
<path d="M108.841 22.0912C110.467 22.8038 111.883 25.2249 113.089 29.3544C114.167 33.1003 114.533 35.7497 114.186 37.3029C116.342 39.8062 118.443 44.694 120.49 51.9664C122.81 60.1159 123.203 66.0452 121.668 69.7545C121.175 70.9422 119.731 72.5593 117.338 74.6058C114.853 76.762 112.395 78.4247 109.965 79.5942L111.198 81.595C112.185 83.3491 113.071 85.2403 113.857 87.2686C116.36 93.81 117.402 100.589 116.981 107.606C116.853 109.835 115.008 111.662 111.445 113.087C107.955 114.458 104.236 114.915 100.29 114.458C98.9557 114.275 97.1924 112.713 94.9998 109.771C92.4965 106.354 91.0073 102.809 90.5322 99.1364C87.1883 101.073 84.3653 102.38 82.063 103.056L81.3503 104.262C80.7291 105.249 79.9982 106.162 79.1577 107.003C76.5082 109.707 73.3745 111.214 69.7566 111.525C66.1569 111.836 63.3612 111.552 61.3696 110.675C60.7483 110.401 60.2367 110.082 59.8347 109.716L59.451 109.25L37.5516 109.99L35.3041 111.964C33.2941 113.297 30.9735 114.001 28.3423 114.074C24.7427 114.184 21.9105 113.855 19.8457 113.087C17.251 112.101 15.4055 110.301 14.3092 107.688C12.7195 103.924 11.879 99.6115 11.7876 94.7511C11.6597 88.4288 13.0758 83.2578 16.0359 79.2379C18.8864 75.3641 22.6048 71.4173 27.1912 67.3974C28.4702 66.2828 31.9511 63.4506 37.6338 58.9008C40.5391 56.5985 43.1246 54.3692 45.3904 52.2131C47.6927 50.0204 49.0906 48.449 49.5839 47.4988C50.1138 43.8627 50.8082 40.1716 51.667 36.4258C53.4028 28.9342 55.0839 24.9325 56.7101 24.4209C58.3364 23.9275 60.73 24.4483 63.8911 25.9832C65.4626 26.7689 66.8695 27.5911 68.112 28.4499L69.9758 27.7921C71.6203 27.2988 73.4202 26.8785 75.3753 26.5314C81.6244 25.4533 88.2573 25.3893 95.2739 26.3395C96.3336 25.2066 98.6725 24.1103 102.29 23.0505C105.78 22.0272 107.964 21.7075 108.841 22.0912Z" fill="#7CBEB3"/>
<path d="M113.802 32.9997L114.35 37.3029L111.527 33.1094C111.819 31.8851 111.947 30.2315 111.911 28.1484L111.746 25.4076C112.587 27.2166 113.272 29.7473 113.802 32.9997Z" fill="#68A198"/>
<path d="M51.0366 37.8511C52.5167 31.0538 53.9693 27.1252 55.3945 26.0654C55.0474 30.0123 54.9286 33.9134 55.0382 37.7689C55.1113 40.0346 55.3489 43.4881 55.7509 48.1293C55.9884 50.8884 55.7052 53.3369 54.9012 55.4747C54.1886 57.3385 53.2567 58.6084 52.1055 59.2845C50.9726 59.9423 50.0408 59.7961 49.3099 58.846C48.5242 57.8045 48.2592 56.0138 48.515 53.4739C49.0266 48.4125 49.8672 43.2049 51.0366 37.8511Z" fill="#68A198"/>
<path d="M100.509 107.523C101.916 110.155 103.597 111.799 105.552 112.457L104.511 114.54C101.751 115.088 99.312 114.366 97.1925 112.375C94.6526 109.944 92.4051 105.532 90.45 99.1364C87.2889 101.055 83.7806 102.489 79.9251 103.44C76.1245 104.39 71.5564 104.965 66.2209 105.166C65.3803 105.44 64.7682 106.025 64.3845 106.92C64.0008 107.779 63.9916 108.556 64.3571 109.25L62.8222 111.059L59.5332 109.058C59.6246 108.437 60.1362 106.582 61.0681 103.494C61.9817 100.534 62.5573 97.9669 62.7948 95.7925C63.4891 89.2876 61.6802 83.4039 57.3679 78.1415C61.2051 81.9969 67.9293 84.418 77.5406 85.4047C87.8096 86.4463 96.5346 85.5144 103.716 82.6091C101.413 84.0891 99.7688 86.3914 98.7821 89.516C97.9051 92.3299 97.6401 95.4454 97.9873 98.8623C98.3345 102.151 99.175 105.038 100.509 107.523Z" fill="#68A198"/>
<path d="M11.5136 91.791C12.2993 98.2046 15.8076 102.325 22.0384 104.152C24.4321 104.847 26.9537 105.102 29.6032 104.92C32.0151 104.755 33.9977 104.28 35.5508 103.494L37.5516 110.237C36.1264 111.626 34.2078 112.713 31.7959 113.499C26.972 115.07 22.1207 114.385 17.242 111.443C14.8848 110.018 13.1946 106.4 12.1714 100.589C11.8425 98.634 11.6232 96.6515 11.5136 94.6415C11.4222 92.9604 11.4222 92.0103 11.5136 91.791Z" fill="#68A198"/>
<path d="M70.1952 47.1152C70.9078 46.9873 71.6661 47.106 72.4701 47.4715C69.7109 49.5911 68.2674 52.8435 68.1395 57.2289C68.0116 61.2305 68.9252 64.9855 70.8804 68.4938C67.0432 68.0735 64.3389 67.1965 62.7675 65.8626C62.3107 65.4606 62.1188 64.3368 62.1919 62.4913C62.265 60.5727 62.603 58.5628 63.206 56.4615C64.7774 50.8701 67.1071 47.7547 70.1952 47.1152Z" fill="white"/>
<path d="M79.6784 57.5578C80.5372 59.8601 81.0671 61.934 81.2681 63.7795C81.4874 65.7529 81.2681 67.0685 80.6103 67.7263C80.1718 68.1648 78.9932 68.4663 77.0746 68.6308C75.1195 68.777 73.0547 68.7313 70.8803 68.4937C68.9252 64.9855 68.0116 61.2305 68.1395 57.2289C68.2674 52.8435 69.7109 49.591 72.47 47.4714C75.1926 48.7322 77.5954 52.0943 79.6784 57.5578Z" fill="#D60040"/>
<path d="M111.774 45.7448C114.058 47.6085 115.419 50.3951 115.858 54.1043C116.132 56.4249 116.022 59.6865 115.529 63.8892C114.725 64.1998 113.948 64.4099 113.199 64.5196C112.432 64.6475 111.856 64.6475 111.472 64.5196C110.394 64.1724 109.855 61.4133 109.855 56.2422C109.837 50.9615 110.476 47.4623 111.774 45.7448Z" fill="#D60040"/>
<path d="M111.774 45.7447C112.103 45.2879 112.45 45.0229 112.815 44.9498C114.588 44.5661 116.305 46.7314 117.968 51.4456C119.594 56.1233 119.914 59.4672 118.927 61.4771C118.471 62.4273 117.338 63.2313 115.529 63.8891C116.022 59.6864 116.132 56.4248 115.858 54.1042C115.419 50.395 114.058 47.6084 111.774 45.7447Z" fill="white"/>
<path d="M95.685 42.9491C95.1551 43.15 93.7755 42.5927 91.5463 41.2771C89.2075 39.925 88.0837 38.8195 88.1751 37.9607C88.303 36.8278 90.1942 35.2655 93.8486 33.2739C97.5579 31.2639 100.025 30.5239 101.249 31.0538C102.035 31.3827 101.624 33.3195 100.016 36.8644C98.3893 40.4275 96.9458 42.4557 95.685 42.9491Z" fill="#006359"/>
<path d="M83.4883 45.3062C83.4335 45.0687 83.7076 44.621 84.3106 43.9632C84.9318 43.2871 85.4891 42.8851 85.9825 42.7572L86.5855 43.6069C87.0971 44.4657 87.6087 45.6716 88.1203 47.2248L87.764 48.0744C87.4168 48.6957 86.9874 49.1251 86.4758 49.3626L85.1602 48.1019C84.2466 47.0969 83.6893 46.165 83.4883 45.3062Z" fill="#006359"/>
<path d="M104.675 51.2812C105.241 54.5154 105.287 56.3244 104.812 56.7081C104.392 57.0553 103.113 56.9183 100.975 56.297C98.8187 55.6757 97.5945 55.0727 97.3021 54.488C97.3935 53.1359 98.0878 51.4457 99.3852 49.4175C100.719 47.3892 101.797 46.3751 102.619 46.3751C103.423 46.3751 104.109 48.0105 104.675 51.2812Z" fill="#006359"/>
<path d="M106.319 98.9445C106.246 97.903 106.886 96.4138 108.238 94.477C109.554 92.5766 110.504 91.663 111.089 91.7361C111.966 91.8275 112.569 93.6638 112.898 97.2452C113.208 100.845 112.925 102.791 112.048 103.083C111.079 103.412 109.919 103.229 108.567 102.535C107.014 101.713 106.265 100.516 106.319 98.9445Z" fill="#006359"/>
<path d="M19.4346 83.541L23.957 83.7329C25.9853 84.1349 27.1547 84.5825 27.4653 85.0759C27.977 85.8981 27.6389 87.634 26.4512 90.2835C25.2818 92.9147 24.2951 94.2669 23.4911 94.34C22.7968 94.3948 21.3898 93.7004 19.2702 92.2569C17.1323 90.8134 16.0725 89.8084 16.0908 89.242C16.1091 88.5111 16.4654 87.4696 17.1597 86.1174C17.9272 84.6008 18.6855 83.742 19.4346 83.541Z" fill="#006359"/>
<path d="M45.5001 60.052C45.9752 60.8742 45.2078 63.1583 43.1978 66.9041C41.1878 70.6499 39.6438 72.6416 38.5658 72.8791C37.5791 73.1167 35.9711 72.6873 33.7419 71.5909C31.6406 70.586 30.2427 69.6632 29.5484 68.8227C29.3291 68.5486 29.4753 67.7446 29.9869 66.4107L30.8092 64.4647L34.4819 61.5594C36.9669 59.6043 38.3556 58.5902 38.648 58.5171L42.0741 58.8186C44.084 59.1658 45.226 59.5769 45.5001 60.052Z" fill="#006359"/>
<path d="M73.3197 50.2397C73.9044 50.2397 74.416 50.8153 74.8545 51.9665C75.2931 53.1907 75.5032 54.7165 75.4849 56.5437C75.4484 58.2796 75.2108 59.65 74.7723 60.655C74.3703 61.5686 73.877 62.0254 73.2923 62.0254C72.7441 62.0254 72.269 61.532 71.867 60.5453C71.4285 59.5038 71.1909 58.1882 71.1544 56.5985C71.0813 54.6799 71.2823 53.1176 71.7574 51.9117C72.1776 50.797 72.6984 50.2397 73.3197 50.2397Z" fill="white"/>
<path d="M110.486 50.8426L111.034 48.3759C111.253 48.0835 111.463 47.9465 111.664 47.9647C111.993 47.983 112.304 48.3393 112.596 49.0337C113.016 49.9656 113.245 51.2812 113.281 52.9805C113.3 54.5885 113.153 55.8401 112.843 56.7355C112.55 57.5394 112.185 57.9414 111.746 57.9414C111.472 57.9414 111.198 57.7404 110.924 57.3384C110.632 56.8999 110.431 56.3243 110.321 55.6117C110.102 54.3509 110.157 52.7612 110.486 50.8426Z" fill="white"/>
<path d="M98.8095 27.6003C93.8029 26.6318 88.7323 26.2572 83.5978 26.4765C78.0796 26.6958 73.009 27.5911 68.3861 29.1625C68.2217 29.2174 67.9933 29.0346 67.7009 28.6144C67.3903 28.1941 67.3172 27.9474 67.4816 27.8743C72.7258 26.1019 78.4085 25.1518 84.5297 25.0239C89.9018 24.896 94.8079 25.3984 99.2481 26.5313C101.514 27.116 102.592 27.5454 102.482 27.8195L98.8095 27.6003Z" fill="#0D131A"/>
<path d="M113.61 35.2472C117.32 40.6193 120.024 46.8501 121.723 53.9398C123.203 60.1158 123.569 64.8941 122.819 68.2744C121.997 72.0203 117.904 75.8575 110.54 79.786C103.232 83.6963 96.1693 85.8616 89.3537 86.2818C82.0631 86.7204 75.2018 86.1174 68.7699 84.4729C62.3381 82.8283 58.1903 80.6083 56.3265 77.8126C55.7235 76.899 55.5316 76.3417 55.7509 76.1407C55.9885 75.9397 56.5275 76.296 57.368 77.2096C59.8348 79.9139 64.2293 81.9787 70.5515 83.4039C76.5631 84.7561 82.8396 85.2312 89.3811 84.8292C96.215 84.4089 103.113 82.2619 110.075 78.3882C116.762 74.6606 120.471 71.1341 121.202 67.8085C121.97 64.355 121.65 59.6956 120.243 53.8302C118.672 47.2704 116.159 41.3684 112.706 36.1243C111.28 33.9499 110.723 32.7439 111.034 32.5064C111.326 32.2688 112.185 33.1824 113.61 35.2472Z" fill="#0D131A"/>
<path d="M50.1047 47.8003C48.8987 50.0661 46.4593 52.7613 42.7866 55.8858C40.5939 57.7314 36.9029 60.6549 31.7136 64.6566C26.9811 68.4207 23.3266 71.7371 20.7502 74.6058C17.2054 78.5527 14.8482 82.4355 13.6788 86.2544C12.2718 90.8408 12.1987 95.9936 13.4595 101.713C14.629 107.103 16.2917 110.429 18.4479 111.69C20.7685 113.042 23.893 113.636 27.8216 113.471C31.878 113.307 34.6828 112.356 36.236 110.621C38.6297 107.935 39.5615 103.586 39.0316 97.5741C38.4835 91.4346 36.6197 86.5377 33.4403 82.8832C32.1978 81.4397 31.6679 80.5626 31.8506 80.252C32.0334 79.9414 32.8099 80.5169 34.1803 81.9787C38.182 86.2727 40.4112 91.526 40.868 97.7386C41.2883 103.641 40.0549 108.209 37.1679 111.443C35.432 113.398 32.3074 114.494 27.7942 114.732C23.4271 114.969 19.9645 114.339 17.4064 112.841C14.8117 111.324 12.9114 107.743 11.7054 102.097C10.4811 96.2859 10.5999 90.9139 12.0617 85.9804C13.1763 82.2528 15.3781 78.5161 18.6671 74.7703C21.0608 72.0294 24.5234 68.8226 29.055 65.1499L40.2924 56.0503C44.3489 52.5603 47.373 49.3535 49.3646 46.4299C49.456 46.302 49.6205 46.4573 49.858 46.8959C50.1138 47.3527 50.196 47.6542 50.1047 47.8003Z" fill="#0D131A"/>
<path d="M56.8198 23.5986C57.9527 23.2331 59.8621 23.5986 62.5482 24.6949C65.2525 25.8095 67.4725 27.1708 69.2084 28.7788C70.5788 30.0579 71.1087 30.7796 70.7981 30.9441C70.5057 31.1268 69.6652 30.6791 68.2765 29.601C66.4858 28.2489 64.4119 27.1069 62.0548 26.175C59.7525 25.2431 58.2085 24.9142 57.4228 25.1883C56.1437 25.6085 54.6636 28.8519 52.9826 34.9183C51.2102 41.3319 50.059 48.0561 49.5291 55.0909C49.3829 57.1192 49.1271 58.0511 48.7617 57.8866C48.378 57.7222 48.2227 56.7629 48.2957 55.0087C48.5333 48.924 49.4469 42.5561 51.0366 35.905C52.8455 28.3768 54.7733 24.2747 56.8198 23.5986Z" fill="#0D131A"/>
<path d="M94.3968 25.9558C95.9865 24.7498 98.4259 23.5987 101.715 22.5023C105.424 21.2598 108.001 20.9674 109.444 21.6252C110.869 22.2648 112.167 24.4118 113.336 28.0662C114.414 31.4649 115.017 34.8818 115.145 38.317C115.145 38.4815 114.917 38.3079 114.46 37.7962C113.985 37.2846 113.747 36.9374 113.747 36.7547C113.638 33.9773 112.998 31.0538 111.829 27.984C110.714 25.0604 109.682 23.3794 108.731 22.9409C107.836 22.5389 105.79 22.7947 102.592 23.7083C99.3578 24.6219 97.0554 25.5995 95.685 26.641C95.5571 26.7506 95.2739 26.6958 94.8354 26.4765C94.4151 26.239 94.2689 26.0654 94.3968 25.9558Z" fill="#0D131A"/>
<path d="M95.4109 42.1815C96.3063 42.1633 97.5579 40.4548 99.1659 37.0562C100.756 33.7123 101.349 31.9399 100.947 31.7389C100.052 31.2821 97.832 31.949 94.2872 33.7397C90.7241 35.5304 88.9334 36.91 88.9151 37.8784C88.8968 38.4814 89.6826 39.3311 91.2722 40.4274C92.8985 41.5237 94.278 42.1085 95.4109 42.1815ZM93.2183 32.9997C97.1103 30.8984 99.8876 30.003 101.55 30.3137C102.117 30.4233 102.281 31.1725 102.044 32.5612C101.825 33.8402 101.331 35.3386 100.564 37.0562C98.6451 41.3319 96.9275 43.4332 95.4109 43.3601C94.205 43.287 92.597 42.5927 90.587 41.2771C88.4857 39.9066 87.4351 38.7463 87.4351 37.7962C87.4351 36.6816 89.3628 35.0827 93.2183 32.9997Z" fill="#0D131A"/>
<path d="M87.5721 47.3892C87.6269 47.243 87.4259 46.5669 86.9691 45.361C86.5123 44.1367 86.1834 43.5155 85.9824 43.4972C85.8179 43.4789 85.4525 43.7256 84.8861 44.2372C84.3196 44.7488 84.0364 45.1326 84.0364 45.3884C84.0547 45.6259 84.4384 46.2472 85.1876 47.2522C85.9367 48.2206 86.3753 48.7048 86.5032 48.7048C86.6128 48.7048 86.8047 48.5221 87.0787 48.1566L87.5721 47.3892ZM87.6269 44.5113C88.1934 45.8635 88.4857 46.7862 88.504 47.2796C88.5223 47.6816 88.2299 48.2297 87.6269 48.9241C87.0056 49.6367 86.5397 49.9199 86.2291 49.7737C85.8636 49.6093 85.2332 48.9332 84.3379 47.7455C83.3695 46.4847 82.9218 45.6168 82.9949 45.1417C83.068 44.6484 83.4974 44.0271 84.2831 43.2779C85.0688 42.5653 85.6626 42.2181 86.0646 42.2364C86.4849 42.2729 87.0056 43.0312 87.6269 44.5113Z" fill="#0D131A"/>
<path d="M102.427 47.17C101.861 47.1334 100.929 48.2024 99.6318 50.3768C98.371 52.5329 97.8137 53.8211 97.9599 54.2414C98.106 54.6251 99.1384 55.091 101.057 55.6392C102.994 56.1874 104.099 56.3336 104.373 56.0777C104.794 55.6758 104.711 54.0952 104.127 51.3361C103.542 48.5952 102.976 47.2065 102.427 47.17ZM98.6999 49.4723C100.29 46.7315 101.541 45.4067 102.455 45.4981C103.606 45.6077 104.529 47.508 105.223 51.199C105.899 54.8718 105.844 56.9 105.059 57.2837C104.383 57.6309 102.893 57.4208 100.591 56.6533C98.3253 55.9042 97.0828 55.2646 96.8635 54.7347C96.5163 53.949 97.1285 52.1949 98.6999 49.4723Z" fill="#0D131A"/>
<path d="M63.8637 52.6243C66.0016 48.2938 68.2948 46.2655 70.7433 46.5396C74.1967 46.9416 77.166 49.856 79.651 55.2829C80.6925 57.5852 81.3777 59.8601 81.7067 62.1076C82.0538 64.4465 81.935 66.3103 81.3503 67.699C81.0397 68.4664 79.8703 68.978 77.8421 69.2338C75.9783 69.4531 73.813 69.4348 71.3462 69.179C68.8612 68.9232 66.7416 68.4755 64.9875 67.836C63.0506 67.1599 61.9999 66.3833 61.8355 65.5063C61.0132 61.3402 61.6893 57.0462 63.8637 52.6243ZM76.7457 53.008C74.8271 49.7555 72.7806 48.0105 70.6062 47.773C69.7474 47.6816 68.8155 48.1567 67.8105 49.1982C66.2939 50.7696 65.0697 53.0354 64.1378 55.9955C63.1511 59.2115 62.8587 62.2903 63.2607 65.2322C63.4069 66.3651 66.1386 67.2239 71.4559 67.8086C76.7731 68.4116 79.6601 68.1832 80.117 67.1234C80.592 65.9722 80.5098 63.9623 79.8703 61.0935C79.1942 58.0968 78.1527 55.4017 76.7457 53.008Z" fill="#0D131A"/>
<path d="M117.119 50.8153C115.748 47.4167 114.369 45.7173 112.98 45.7173C111.756 45.7173 111.006 48.6135 110.732 54.4058C110.458 60.1616 110.805 63.3227 111.774 63.8892C112.413 64.2546 113.619 64.0536 115.392 63.2862C117.164 62.5187 118.123 61.797 118.27 61.1209C118.982 57.8867 118.599 54.4515 117.119 50.8153ZM109.444 53.9399C109.755 47.6177 110.933 44.4565 112.98 44.4565C114.752 44.4565 116.47 46.3477 118.133 50.1301C119.868 54.1135 120.353 57.8319 119.585 61.2854C119.311 62.4548 117.959 63.4963 115.529 64.4099C113.172 65.3053 111.673 65.4788 111.034 64.9307C110.431 64.4373 109.983 63.0852 109.691 60.8742C109.398 58.7546 109.316 56.4432 109.444 53.9399Z" fill="#0D131A"/>
<path d="M38.3465 57.9963L43.143 58.2978C45.0068 58.6267 46.0757 59.0561 46.3498 59.586C46.8432 60.591 45.9478 63.1674 43.6638 67.3152C41.3797 71.4996 39.6347 73.5918 38.4287 73.5918C37.2776 73.5918 35.3955 73.0162 32.7826 71.865C30.0235 70.6591 28.6439 69.6724 28.6439 68.9049C28.6439 68.4664 28.8449 67.8086 29.2469 66.9315L30.5625 64.3551C30.6539 64.2089 30.9006 64.1176 31.3025 64.081C31.7228 64.0628 31.8873 64.1267 31.7959 64.2729C31.3025 65.1865 30.9097 66.0727 30.6173 66.9315C30.3615 67.6807 30.2336 68.2197 30.2336 68.5486C30.3067 69.042 31.4853 69.8003 33.7693 70.8235C35.9985 71.8285 37.5425 72.3401 38.4013 72.3584C39.2053 72.1026 40.5209 70.2388 42.3482 66.7671C44.1754 63.2953 44.9611 61.1757 44.7053 60.4083C44.5591 60.0977 43.7734 59.8053 42.3482 59.5312L38.0998 59.2297C37.9171 59.248 37.8714 59.047 37.9628 58.6267C38.0542 58.2247 38.1821 58.0146 38.3465 57.9963Z" fill="#0D131A"/>
<path d="M19.6813 84.0344C19.1148 84.3085 18.4662 85.0668 17.7353 86.3093C17.0044 87.5336 16.6664 88.3832 16.7212 88.8583C16.7943 89.3516 17.7627 90.2561 19.6265 91.5717C21.4902 92.8873 22.6962 93.5086 23.2444 93.4355C23.7926 93.3624 24.6422 92.1016 25.7934 89.6531C26.9445 87.2046 27.3739 85.8251 27.0816 85.5145C26.7527 85.1856 25.5558 84.8018 23.4911 84.3633C21.3897 83.9248 20.1198 83.8151 19.6813 84.0344ZM16.6389 85.5967C17.4977 84.1714 18.3109 83.2578 19.0783 82.8558L23.82 83.0751C26.4512 83.5685 27.9861 84.1623 28.4246 84.8567C28.8266 85.4962 28.3698 87.2869 27.0542 90.2287C25.7386 93.1523 24.6605 94.7694 23.82 95.08C23.1804 95.3358 21.673 94.6323 19.2976 92.9696C16.8856 91.2885 15.6157 89.9729 15.4878 89.0227C15.3964 88.2005 15.7801 87.0585 16.6389 85.5967Z" fill="#0D131A"/>
<path d="M106.922 98.8897V98.9171C106.959 100.434 107.699 101.539 109.143 102.234C110.44 102.855 111.317 102.955 111.774 102.535C112.249 102.097 112.413 100.434 112.267 97.5467C112.121 94.6049 111.692 92.9695 110.979 92.6406C110.595 92.4761 109.819 93.2984 108.649 95.1074C107.498 96.9163 106.922 98.1771 106.922 98.8897ZM107.717 94.1755C109.124 91.928 110.211 90.8134 110.979 90.8316C112.221 90.8499 112.998 92.8325 113.309 96.7793C113.619 100.653 113.363 102.891 112.541 103.494C111.865 104.006 110.632 103.915 108.841 103.22C106.795 102.416 105.744 101.073 105.689 99.1912C105.671 98.0583 106.347 96.3864 107.717 94.1755Z" fill="#0D131A"/>
<path d="M119.75 66.9863C119.731 67.6989 119.631 68.2837 119.448 68.7405L118.9 69.6449C118.005 70.7047 115.867 72.0386 112.486 73.6466C108.996 75.3094 105.972 76.3966 103.414 76.9082C98.7547 77.8584 91.6011 77.9406 81.9533 77.1549C72.3055 76.3874 66.2117 75.2363 63.6718 73.7014C63.2516 73.4273 62.8679 72.9796 62.5207 72.3584C62.2101 71.8285 61.9817 71.2438 61.8355 70.6042C61.5614 69.4531 61.5431 68.8044 61.7807 68.6582C62.0182 68.5121 62.3928 69.042 62.9044 70.2479C63.215 70.9606 63.5439 71.5087 63.8911 71.8924L64.9875 72.7147C67.034 73.8293 72.5065 74.816 81.4051 75.6748C91.0347 76.6067 98.2888 76.5793 103.167 75.5926C105.36 75.1358 107.964 74.2496 110.979 72.934C113.775 71.7097 115.867 70.5951 117.255 69.5901C117.767 69.2064 118.142 68.8136 118.379 68.4116C118.635 67.9913 118.799 67.4797 118.873 66.8767C119 65.7804 119.183 65.2687 119.421 65.3418C119.658 65.4332 119.768 65.9813 119.75 66.9863Z" fill="#0D131A"/>
<path d="M78.1984 44.484C78.8379 45.0687 79.4592 45.7813 80.0622 46.6218C80.7017 47.4989 81.1585 48.2937 81.4326 49.0064C81.8346 50.0296 81.8529 50.6052 81.4874 50.7331C81.1037 50.8427 80.6743 50.4407 80.1992 49.5271C79.4135 47.974 78.4542 46.567 77.3213 45.3062C76.2615 44.082 75.8413 43.3693 76.0605 43.1683C76.2981 42.9674 77.0107 43.4059 78.1984 44.484Z" fill="#0D131A"/>
<path d="M109.088 44.6757C108.741 45.6807 108.521 46.7588 108.43 47.9099C108.357 48.9149 108.128 49.4083 107.745 49.39C107.361 49.39 107.197 48.8967 107.251 47.9099C107.306 46.704 107.617 45.5163 108.183 44.3468C108.695 43.3053 109.069 42.812 109.307 42.8668C109.526 42.9399 109.453 43.5429 109.088 44.6757Z" fill="#0D131A"/>
<path d="M97.0555 73.3999C96.6535 73.1989 96.3337 72.9431 96.0962 72.6325C95.8587 72.3401 95.7764 72.13 95.8495 72.0021L96.6992 72.0295C97.2291 72.1391 97.6219 72.3127 97.8778 72.5502C98.2067 72.8791 98.2706 73.1624 98.0696 73.3999C97.8686 73.6374 97.5306 73.6374 97.0555 73.3999Z" fill="#0D131A"/>
<path d="M106.402 72.0294C106.018 72.5045 105.671 72.669 105.36 72.5228C105.05 72.3766 105.031 72.0751 105.305 71.6183C105.506 71.2894 105.826 70.997 106.265 70.7412C106.667 70.4854 106.922 70.4032 107.032 70.4946C107.105 70.5676 107.087 70.7595 106.977 71.0701L106.402 72.0294Z" fill="#0D131A"/>
<path d="M73.4568 47.6085C73.6212 47.6633 73.6943 47.9282 73.676 48.4033C73.6578 48.8784 73.5755 49.0703 73.4294 48.9789C72.4975 48.3942 71.6204 48.8419 70.7981 50.3219C70.0307 51.6741 69.5008 53.547 69.2085 55.9406C68.8978 58.4074 68.9344 60.7097 69.3181 62.8476C69.7749 65.2778 70.6246 67.0137 71.8671 68.0552C72.0133 68.1648 71.9219 68.3293 71.593 68.5486C71.2641 68.7495 71.0265 68.7952 70.8804 68.6856C69.382 67.571 68.3497 65.7255 67.7832 63.1491C67.2899 60.8285 67.235 58.3435 67.6188 55.694C68.0025 53.081 68.706 50.998 69.7292 49.4448C70.8438 47.7821 72.0863 47.1699 73.4568 47.6085Z" fill="#0D131A"/>
<path d="M111.308 45.964C111.947 45.4706 112.687 45.6807 113.528 46.5944C114.368 47.4897 115.09 48.8236 115.693 50.596C117.192 55.0362 117.255 59.4032 115.885 63.6972C115.83 63.8617 115.62 63.9805 115.255 64.0536C114.889 64.1084 114.725 64.0536 114.761 63.8891C115.876 60.4174 115.912 56.4797 114.871 52.0761C114.451 50.3036 113.93 48.9058 113.309 47.8826C112.687 46.841 112.121 46.4573 111.609 46.7314C111.463 46.8228 111.344 46.7405 111.253 46.4847C111.162 46.2472 111.18 46.0736 111.308 45.964Z" fill="#0D131A"/>
<path d="M109.28 80.0053C109.188 79.8591 109.38 79.6398 109.855 79.3475C110.312 79.0369 110.577 78.9546 110.65 79.1008C115.839 87.4878 118.151 97.2726 117.584 108.455C117.53 109.497 116.735 110.575 115.2 111.689C113.738 112.749 111.929 113.635 109.773 114.348C104.547 116.066 100.619 116.002 97.9874 114.156C96.2515 112.932 94.4517 110.593 92.5879 107.14C90.7972 103.832 89.8836 101.32 89.847 99.6024C89.847 99.4379 90.1029 99.2552 90.6145 99.0542L91.3545 98.972C91.3911 100.671 92.2407 103.074 93.9035 106.18C95.6759 109.488 97.4575 111.772 99.2482 113.033C101.532 114.622 104.977 114.668 109.581 113.17C111.445 112.567 113.016 111.817 114.295 110.922C115.629 110.008 116.315 109.168 116.351 108.4C116.881 97.9487 114.524 88.4836 109.28 80.0053Z" fill="#0D131A"/>
<path d="M93.9583 97.3823C89.2258 101.092 83.5797 103.604 77.0199 104.92C70.9352 106.126 65.4992 106.062 60.7118 104.728C60.5474 104.673 60.52 104.39 60.6296 103.878C60.721 103.385 60.8489 103.156 61.0133 103.193C65.7093 104.509 70.9626 104.591 76.7732 103.44C82.6752 102.27 88.029 100.05 92.8346 96.7793C94.6618 95.5368 95.6759 95.0435 95.8769 95.2993C96.0597 95.5368 95.4201 96.2312 93.9583 97.3823Z" fill="#0D131A"/>
<path d="M81.1585 102.919C81.2498 102.773 81.6701 102.645 82.4193 102.535L83.406 102.617C81.9807 104.956 80.2175 106.993 78.1161 108.729C75.7042 110.721 73.3379 111.863 71.0173 112.155L62.7948 111.909C60.6387 111.379 59.3687 110.575 58.985 109.497C58.9302 109.332 59.0672 109.058 59.3961 108.675C59.7068 108.273 59.8895 108.154 59.9443 108.318C60.3098 109.341 61.4335 110.109 63.3156 110.621C65.3621 111.187 67.8745 111.287 70.8529 110.922C72.5888 110.703 74.4251 109.835 76.362 108.318C78.2806 106.82 79.8794 105.02 81.1585 102.919Z" fill="#0D131A"/>
<path d="M17.379 13.1561C17.5252 13.0464 17.8815 13.0464 18.4479 13.1561C19.325 13.3205 20.0924 13.7134 20.7502 14.3346C20.8964 14.4443 20.9055 14.6179 20.7776 14.8554C20.668 15.0747 20.5401 15.1295 20.3939 15.0199C20.0102 14.691 19.6356 14.4717 19.2702 14.3621L18.7494 14.3346L18.859 15.2117L19.0235 16.8562C19.0783 19.3413 18.2652 22.5937 16.5841 26.6136C15.2685 29.8113 13.5783 33.1186 11.5136 36.5355C5.00862 47.3345 3.57424 56.6533 7.21044 64.4922C8.58086 67.4523 10.5451 69.8734 13.1033 71.7554C15.369 73.3999 17.5434 74.2953 19.6265 74.4414C19.7909 74.4597 19.7635 74.6699 19.5443 75.0718C19.3433 75.4921 19.1514 75.6931 18.9687 75.6748C16.5385 75.5104 14.1082 74.5511 11.678 72.7969C8.97372 70.8235 6.91808 68.2654 5.51111 65.1226C1.85665 56.9731 3.4372 47.2614 10.2528 35.9873C13.4687 30.6518 15.6522 26.2665 16.8034 22.8313C18.0277 19.1951 18.2286 16.2441 17.4064 13.9783C17.2419 13.5581 17.2328 13.284 17.379 13.1561Z" fill="#0D131A"/>
<path d="M31.5765 12.1967C31.7044 12.3246 31.7044 12.5256 31.5765 12.7997C31.4486 13.092 31.3207 13.1743 31.1928 13.0463C29.8224 11.6211 28.0408 10.4791 25.8481 9.62029C23.7834 8.83458 21.9287 8.4874 20.2842 8.57877C19.5168 8.63358 19.1057 8.73408 19.0508 8.88026C18.996 9.00816 19.1787 9.40102 19.599 10.0588C21.5907 13.2017 21.6455 17.8428 19.7635 23.9823C18.7402 27.2714 17.1414 31.3643 14.967 36.2613C11.751 44.7214 11.4952 52.2679 14.1995 58.9007C15.3142 61.6416 16.8582 63.9622 18.8316 65.8625C20.6588 67.6349 22.6322 68.8317 24.7518 69.453C24.898 69.4895 24.7883 69.6723 24.4229 70.0012C24.0575 70.3118 23.7925 70.4488 23.6281 70.4123C18.0185 68.7678 14.1721 64.5834 12.0891 57.8592C9.91468 50.8975 10.4446 43.4789 13.6788 35.6035L16.0907 30.1492C17.2419 27.4815 18.1098 25.1518 18.6945 23.1601C20.4852 17.1668 20.2751 12.754 18.0641 9.92178C17.315 8.95335 16.9678 8.33209 17.0226 8.058C17.0774 7.74737 17.6256 7.52811 18.6671 7.4002C20.6223 7.14439 22.8149 7.44588 25.2452 8.30468C27.8216 9.2183 29.932 10.5156 31.5765 12.1967Z" fill="#0D131A"/>
<path d="M29.658 6.90687L30.6721 7.72912C30.7817 7.85703 30.7543 8.12198 30.5899 8.52397C30.4254 8.90769 30.2884 9.03559 30.1788 8.90769L29.6032 8.22247C29.2743 7.89357 29.0276 7.76567 28.8632 7.83876C28.717 7.91185 28.6622 8.14939 28.6987 8.55138L28.9454 10.1137C28.9819 10.2598 28.8357 10.3329 28.5068 10.3329C28.1779 10.3147 28.0044 10.2233 27.9861 10.0588L27.712 8.35952C27.6389 7.42763 27.7851 6.81551 28.1505 6.52315C28.4612 6.28561 28.9637 6.41352 29.658 6.90687Z" fill="#0D131A"/>
<path d="M71.7026 14.6361C75.6312 17.7972 77.6959 21.6161 77.8969 26.0928C77.9152 26.2755 77.6777 26.4126 77.1843 26.5039C76.691 26.6136 76.4443 26.577 76.4443 26.3943C76.2616 22.3013 74.4161 18.7656 70.9078 15.7872C66.6869 12.2059 60.7849 10.2781 53.2019 10.004C46.7152 9.7665 42.0741 9.04475 39.2784 7.83877C37.0126 6.87034 35.3772 5.23497 34.3723 2.93265C34.153 2.4393 33.9703 2.17435 33.8241 2.13781C33.6597 2.08299 33.3947 2.26571 33.0293 2.68598C31.805 4.03813 31.0833 5.69177 30.864 7.64691C30.6447 9.65687 31.065 11.2192 32.1248 12.3338C34.2626 14.5264 35.9528 17.112 37.1953 20.0904C37.9628 21.9359 38.8947 25.0148 39.991 29.327C41.3249 34.5712 42.7958 38.4723 44.4038 41.0304C45.7011 43.0952 47.6014 44.959 50.1047 46.6218C50.2144 46.6766 50.1413 46.9415 49.8855 47.4166C49.6479 47.8734 49.4561 48.0562 49.3099 47.9648C46.094 45.8452 43.7825 43.5977 42.3755 41.2223C41.0782 39.0296 39.8266 35.4665 38.6206 30.533C37.3233 25.1792 36.3548 21.6983 35.7153 20.0904C34.7286 17.5505 33.2394 15.2482 31.2477 13.1834C29.8225 11.7034 29.3657 9.51983 29.8773 6.6328C30.3706 3.91022 31.3665 1.96422 32.8648 0.794792C33.5409 0.264895 34.016 0.0273546 34.29 0.0821715C34.5641 0.136988 34.8291 0.520707 35.0849 1.23333C36.1812 4.08381 37.7527 5.96586 39.7992 6.87948C42.1015 7.88445 46.5782 8.51485 53.2293 8.77066C61.0499 9.04475 67.2076 10.9999 71.7026 14.6361Z" fill="#0D131A"/>
<path d="M79.7059 16.0065C83.1959 19.0032 84.7034 22.2465 84.2283 25.7365C84.2101 25.901 83.936 25.9741 83.4061 25.9558C82.8762 25.9375 82.6204 25.8462 82.6386 25.6817C83.0406 22.685 81.8529 19.8711 79.0755 17.2399C75.8779 14.225 71.4286 12.5074 65.7276 12.0871C65.5449 12.0688 65.015 11.8496 64.1379 11.4293C63.2426 10.9908 62.8771 10.7715 63.0416 10.7715C70.0947 10.7715 75.6495 12.5165 79.7059 16.0065Z" fill="#0D131A"/>
<path d="M36.4278 86.6381C37.4146 82.7827 38.7941 79.8956 40.5665 77.9771L60.8762 83.8973C62.6486 90.658 62.8222 97.099 61.397 103.22C60.5382 106.856 59.1952 110.1 57.3679 112.95C56.3812 114.503 54.3713 115.527 51.3381 116.02C48.1404 116.55 45.0615 116.23 42.1014 115.061C39.9453 114.22 38.2551 112.165 37.0308 108.894C35.8979 105.915 35.2858 102.343 35.1945 98.1771C35.1031 94.1024 35.5142 90.2561 36.4278 86.6381Z" fill="#7CBEB3"/>
<path d="M40.7858 94.1755C40.8955 93.0609 42.2385 91.5535 44.8149 89.6531C47.3913 87.7528 49.0266 87.0676 49.721 87.5975C50.4336 88.1274 50.5707 91.0144 50.1321 96.2586C49.6936 101.503 49.0266 104.161 48.1313 104.234C47.6014 104.271 46.231 102.809 44.02 99.8491C41.7908 96.8524 40.7127 94.9613 40.7858 94.1755Z" fill="#006359"/>
<path d="M35.9071 87.7893C35.9985 95.6281 37.7618 102.16 41.197 107.386C44.486 112.448 48.5973 115.234 53.5308 115.746C51.5208 116.258 49.3464 116.422 47.0076 116.239C42.3299 115.874 39.1779 113.937 37.5516 110.429C35.9254 106.939 35.1671 102.115 35.2767 95.957L35.9071 87.7893Z" fill="#68A198"/>
<path d="M39.3881 80.992C37.0126 85.0667 35.9346 90.9048 36.1538 98.506C36.3914 106.418 38.0542 111.507 41.1422 113.773C43.2435 115.307 46.0574 115.92 49.584 115.609C52.9827 115.298 55.2302 114.366 56.3265 112.813C58.8115 109.287 60.4378 105.029 61.2052 100.041C61.8995 95.5459 61.8082 91.2702 60.9311 87.2138C60.4926 85.1855 60.4378 84.0983 60.7667 83.9521C61.0956 83.806 61.5341 84.7196 62.0823 86.693C63.2152 90.8043 63.4436 95.2536 62.7675 100.041C62.0366 105.249 60.3647 109.716 57.7517 113.444C56.3996 115.362 53.6039 116.486 49.3647 116.815C45.2169 117.126 42.0924 116.513 39.991 114.979C38.4744 113.864 37.2228 111.891 36.2361 109.058C35.2859 106.354 34.7103 103.248 34.5093 99.7394C34.016 91.7727 35.2768 85.3317 38.2917 80.4165C39.3515 78.6806 40.0824 77.8492 40.4844 77.9223C40.9047 77.9771 40.5392 79.0003 39.3881 80.992Z" fill="#0D131A"/>
<path d="M41.4436 93.9014C41.4071 94.541 42.3481 96.3317 44.2667 99.2735C46.2218 102.27 47.4735 103.732 48.0217 103.659C48.6247 103.567 49.118 101.092 49.5017 96.2312C49.8854 91.3524 49.7941 88.7121 49.2276 88.3101C48.6977 87.9447 47.2725 88.6299 44.9519 90.3657C42.6496 92.1016 41.4802 93.2802 41.4436 93.9014ZM40.1828 93.6273C40.2377 92.2935 41.7634 90.6124 44.7601 88.5842C47.7019 86.6108 49.4652 85.8982 50.0499 86.4463C51.0183 87.3782 51.2924 90.5485 50.8722 95.9571C50.4336 101.366 49.657 104.39 48.5424 105.029C47.775 105.486 46.1762 104.043 43.7459 100.699C41.3157 97.3732 40.128 95.016 40.1828 93.6273Z" fill="#0D131A"/>
<path d="M19.5168 113.005C19.4255 112.731 19.7727 112.265 20.5584 111.607C21.3623 110.95 21.9653 110.648 22.3673 110.703C23.0982 110.794 23.6007 111.589 23.8748 113.087C24.1306 114.476 24.1489 115.271 23.9296 115.472C23.6738 115.709 22.9612 115.563 21.7917 115.033C20.531 114.467 19.7727 113.791 19.5168 113.005Z" fill="white"/>
<path d="M27.6846 115.061C26.4055 114.476 25.766 113.891 25.766 113.307C25.766 112.795 26.1406 112.174 26.8897 111.443C27.6206 110.712 28.1779 110.438 28.5617 110.621C29.1646 110.913 29.658 111.772 30.0417 113.197C30.4072 114.567 30.4254 115.362 30.0965 115.582C29.7494 115.819 28.9454 115.646 27.6846 115.061Z" fill="white"/>
<path d="M31.9877 113.389C31.8598 112.439 32.207 111.562 33.0293 110.758L34.3175 109.826C34.9935 110.118 35.5234 110.995 35.9072 112.457C36.2543 113.773 36.3366 114.54 36.1538 114.759L33.9886 114.704C32.7095 114.394 32.0426 113.955 31.9877 113.389Z" fill="white"/>
<path d="M42.7593 115.691C42.7227 115.216 42.8872 114.704 43.2526 114.156C43.6911 113.499 44.2484 113.179 44.9245 113.197C45.6006 113.215 46.1214 113.471 46.4868 113.964C46.7792 114.421 46.9071 114.979 46.8705 115.636C46.834 116.239 46.6239 116.915 46.2401 117.665C45.8747 118.414 45.5823 118.788 45.3631 118.788C45.1255 118.788 44.6504 118.396 43.9378 117.61C43.1887 116.788 42.7958 116.148 42.7593 115.691Z" fill="white"/>
<path d="M48.2135 116.294C48.1587 115.399 48.4054 114.659 48.9536 114.074C49.3921 113.581 49.8306 113.334 50.2692 113.334C50.5981 113.334 50.9818 113.581 51.4203 114.074C51.8589 114.586 52.1329 115.097 52.2426 115.609C52.3157 115.938 52.2334 116.504 51.9959 117.308C51.7584 118.167 51.4751 118.679 51.1462 118.843C50.8173 119.026 50.2692 118.825 49.5017 118.24C48.6795 117.637 48.2501 116.988 48.2135 116.294Z" fill="white"/>
<path d="M53.613 116.13C53.1014 115.582 53.1471 114.75 53.7501 113.636C54.353 112.521 54.9469 112.046 55.5316 112.21C56.0798 112.393 56.6097 113.16 57.1213 114.513C57.5964 115.81 57.7151 116.641 57.4776 117.007C57.2583 117.336 56.6919 117.409 55.7783 117.226C54.8464 117.025 54.1246 116.66 53.613 116.13Z" fill="white"/>
<path d="M62.9319 111.141C62.8588 110.758 63.2152 110.282 64.0009 109.716C64.7683 109.168 65.3256 108.967 65.6728 109.113C66.2758 109.387 66.6686 110.155 66.8514 111.415C67.0341 112.64 66.961 113.325 66.6321 113.471C66.3032 113.617 65.6545 113.444 64.6861 112.95C63.6446 112.402 63.0598 111.799 62.9319 111.141Z" fill="white"/>
<path d="M70.3596 113.005C69.245 112.621 68.5963 112.183 68.4136 111.69C68.2491 111.269 68.5324 110.666 69.2633 109.881C69.9942 109.113 70.524 108.802 70.853 108.949C71.4925 109.223 71.9402 109.926 72.196 111.059C72.4152 112.046 72.4335 112.722 72.2508 113.087L70.3596 113.005Z" fill="white"/>
<path d="M73.3471 110.73C73.1278 110.292 73.4385 109.661 74.279 108.839C75.1012 108.035 75.6951 107.706 76.0605 107.852C76.4808 108.035 76.8919 108.702 77.2939 109.853C77.6776 110.986 77.7781 111.68 77.5954 111.936L75.5124 111.881C74.3064 111.589 73.5846 111.205 73.3471 110.73Z" fill="white"/>
<path d="M104.428 114.951C104.173 114.695 104.374 114.038 105.031 112.978C105.689 111.9 106.246 111.37 106.703 111.388C107.306 111.425 107.982 112.082 108.731 113.361C109.444 114.567 109.718 115.28 109.554 115.499C109.353 115.755 108.576 115.837 107.224 115.746C105.817 115.655 104.885 115.39 104.428 114.951Z" fill="white"/>
<path d="M110.403 113.444C110.148 113.17 110.312 112.484 110.897 111.388C111.463 110.292 111.957 109.762 112.377 109.798C112.779 109.835 113.345 110.474 114.076 111.717C114.77 112.941 115.054 113.69 114.926 113.964C114.761 114.238 114.094 114.339 112.925 114.266C111.682 114.193 110.842 113.919 110.403 113.444Z" fill="white"/>
<path d="M114.981 110.922C114.688 110.557 114.78 109.862 115.255 108.839C115.711 107.852 116.077 107.377 116.351 107.414C116.826 107.469 117.411 108.072 118.105 109.223C118.781 110.356 119.037 111.068 118.873 111.361C118.745 111.671 118.169 111.79 117.146 111.717C116.068 111.644 115.346 111.379 114.981 110.922Z" fill="white"/>
<path d="M20.6954 111.443L21.9013 112.95C22.7053 114.065 23.153 114.933 23.2444 115.554L21.3258 114.567C20.065 113.855 19.4711 113.343 19.5442 113.033C19.6173 112.722 19.8366 112.366 20.202 111.964L20.6954 111.443Z" fill="#DBDCDC"/>
<path d="M26.8624 111.552L27.9039 112.841C28.6348 113.864 29.119 114.787 29.3565 115.609C27.109 114.823 25.9579 114.047 25.9031 113.279C25.8665 112.804 26.0127 112.375 26.3416 111.991L26.8624 111.552Z" fill="#DBDCDC"/>
<path d="M35.4686 114.951C34.2991 114.695 33.4586 114.44 32.947 114.184C32.3623 113.91 32.0334 113.572 31.9603 113.17C31.8872 112.822 31.9603 112.42 32.1795 111.964L32.5358 111.388C33.0292 111.626 33.6322 112.21 34.3448 113.142C34.9478 113.946 35.3224 114.549 35.4686 114.951Z" fill="#DBDCDC"/>
<path d="M43.8555 113.773L44.1296 115.444C44.3672 116.705 44.6595 117.692 45.0067 118.405L43.9652 117.5C43.2891 116.751 42.9693 115.983 43.0059 115.198C43.0424 114.65 43.1794 114.248 43.417 113.992C43.5997 113.791 43.7459 113.718 43.8555 113.773Z" fill="#DBDCDC"/>
<path d="M48.7891 114.65L49.8306 116.349L51.2011 118.871C50.6894 118.706 50.1778 118.469 49.6662 118.158C48.6429 117.537 48.1679 116.87 48.241 116.157C48.314 115.463 48.4237 115.006 48.5699 114.787L48.7891 114.65Z" fill="#DBDCDC"/>
<path d="M53.7501 113.663L55.0383 114.896C55.9519 115.828 56.5092 116.605 56.7102 117.226L55.0108 116.678C53.878 116.239 53.3298 115.81 53.3663 115.39L53.5856 114.156L53.7501 113.663Z" fill="#DBDCDC"/>
<path d="M63.8364 109.908C64.0008 110.018 64.348 110.429 64.8779 111.141C65.5357 112.037 65.9011 112.758 65.9742 113.307L64.0008 112.375C63.4892 112.064 63.2242 111.671 63.206 111.196C63.1877 110.849 63.2882 110.529 63.5075 110.237L63.8364 109.908Z" fill="#DBDCDC"/>
<path d="M68.9618 110.072L69.8662 110.703C70.5606 111.342 71.1636 112.183 71.6752 113.224L70.1951 112.813C69.1902 112.448 68.6329 112.028 68.5232 111.552C68.4136 111.077 68.4501 110.694 68.6328 110.401L68.9618 110.072Z" fill="#DBDCDC"/>
<path d="M74.1146 108.976L75.2383 109.798C76.0423 110.511 76.5905 111.251 76.8829 112.018L75.3206 111.799C74.2242 111.525 73.5756 111.114 73.3746 110.566C73.2649 110.31 73.3106 109.99 73.5116 109.606C73.6943 109.241 73.8953 109.031 74.1146 108.976Z" fill="#DBDCDC"/>
<path d="M105.141 112.841C106.676 113.572 107.909 114.485 108.841 115.582L106.786 115.609C105.415 115.536 104.702 115.262 104.648 114.787C104.593 114.312 104.657 113.846 104.839 113.389L105.141 112.841Z" fill="#DBDCDC"/>
<path d="M110.869 111.662C111.18 111.753 111.701 112.028 112.432 112.484C113.418 113.087 114.03 113.663 114.268 114.211L112.349 114.129C111.052 113.983 110.394 113.699 110.376 113.279C110.339 112.877 110.413 112.484 110.595 112.101L110.869 111.662Z" fill="#DBDCDC"/>
<path d="M115.2 108.976L116.406 109.716C117.301 110.337 117.922 110.995 118.27 111.69L116.844 111.58C115.858 111.434 115.246 111.187 115.008 110.84C114.77 110.493 114.734 110.072 114.898 109.579L115.2 108.976Z" fill="#DBDCDC"/>
<path d="M103.908 115.116C103.761 114.586 104.054 113.736 104.785 112.567C105.515 111.379 106.146 110.776 106.676 110.758C107.206 110.739 107.946 111.434 108.896 112.841C109.828 114.211 110.23 115.143 110.102 115.636C109.992 116.075 108.969 116.212 107.032 116.048C105.095 115.883 104.054 115.572 103.908 115.116ZM105.689 112.978C105.232 113.709 105.05 114.239 105.141 114.567C105.324 114.823 105.972 115.033 107.087 115.198C108.165 115.362 108.75 115.353 108.841 115.17C108.932 114.969 108.686 114.385 108.101 113.416C107.48 112.43 106.996 111.927 106.648 111.909C106.447 111.891 106.128 112.247 105.689 112.978Z" fill="#0D131A"/>
<path d="M114.35 113.745C114.46 113.581 114.222 112.996 113.638 111.991C113.071 110.986 112.642 110.456 112.349 110.401C112.13 110.383 111.819 110.767 111.417 111.552C110.997 112.338 110.824 112.886 110.897 113.197C110.951 113.471 111.527 113.672 112.623 113.8L114.35 113.745ZM112.486 109.168C113.071 109.241 113.765 110.054 114.569 111.607C115.337 113.087 115.638 114.001 115.474 114.348C115.309 114.714 114.442 114.823 112.87 114.677C111.262 114.513 110.294 114.202 109.965 113.745C109.672 113.343 109.864 112.475 110.54 111.141C111.216 109.753 111.865 109.095 112.486 109.168Z" fill="#0D131A"/>
<path d="M115.611 109.141C115.337 109.762 115.282 110.273 115.446 110.675C115.52 110.895 116.004 111.068 116.899 111.196L118.352 111.114C118.461 110.931 118.27 110.401 117.776 109.524C117.283 108.592 116.853 108.136 116.488 108.154C116.177 108.19 115.885 108.519 115.611 109.141ZM115.008 108.455C115.574 107.414 116.059 106.893 116.461 106.893C117.137 106.893 117.849 107.651 118.598 109.168C119.329 110.63 119.585 111.543 119.366 111.909L116.927 111.991C115.428 111.808 114.615 111.553 114.487 111.224C114.213 110.511 114.387 109.588 115.008 108.455Z" fill="#0D131A"/>
<path d="M51.1462 114.458C50.8356 114.092 50.5341 113.928 50.2417 113.964C49.8215 113.983 49.4469 114.248 49.118 114.759C48.7891 115.253 48.6521 115.728 48.7069 116.184C48.7617 116.605 49.118 117.08 49.7758 117.61C50.4153 118.103 50.8447 118.304 51.064 118.213C51.2102 118.158 51.3655 117.893 51.5299 117.418C51.7492 116.87 51.8223 116.358 51.7492 115.883C51.6944 115.317 51.4934 114.841 51.1462 114.458ZM48.2957 114.101C48.917 113.188 49.5931 112.758 50.324 112.813C50.8539 112.85 51.3289 113.124 51.7492 113.636C52.1695 114.147 52.4344 114.778 52.5441 115.527C52.672 116.258 52.6171 117.052 52.3796 117.911C52.1421 118.752 51.8497 119.236 51.5025 119.364C51.064 119.528 50.3605 119.291 49.3921 118.651C48.3506 117.939 47.7567 117.162 47.6105 116.322C47.5009 115.682 47.7293 114.942 48.2957 114.101Z" fill="#0D131A"/>
<path d="M45.9113 114.403C45.6737 114.074 45.4088 113.891 45.1164 113.855C44.7693 113.818 44.4038 113.964 44.0201 114.293C43.6181 114.622 43.4171 114.979 43.4171 115.362C43.4354 115.837 43.7003 116.404 44.2119 117.062C44.6688 117.683 45.0068 117.993 45.2261 117.993C45.4271 117.975 45.6463 117.71 45.8839 117.199C46.1397 116.687 46.2767 116.175 46.295 115.664C46.3133 115.189 46.1854 114.768 45.9113 114.403ZM43.0882 113.498C43.7643 112.895 44.4678 112.64 45.1987 112.731C45.8016 112.804 46.3224 113.133 46.7609 113.718C47.1812 114.302 47.3731 114.951 47.3365 115.664C47.3182 116.248 47.0898 116.998 46.6513 117.911C46.1762 118.861 45.7651 119.355 45.4179 119.391C45.0159 119.446 44.3855 118.98 43.5267 117.993C42.6131 116.97 42.138 116.102 42.1015 115.39C42.065 114.714 42.3939 114.083 43.0882 113.498Z" fill="#0D131A"/>
<path d="M56.4635 113.855C56.0432 113.27 55.6595 112.978 55.3123 112.978C54.9652 112.941 54.618 113.197 54.2708 113.745C53.9054 114.312 53.7683 114.842 53.8597 115.335C53.9511 115.773 54.4627 116.157 55.3946 116.486C56.2899 116.778 56.8107 116.861 56.9568 116.733C57.0848 116.623 57.1122 116.239 57.0391 115.582C56.966 114.869 56.7741 114.293 56.4635 113.855ZM55.5042 111.772C56.3995 111.9 57.103 112.841 57.6147 114.595C58.0897 116.239 58.1811 117.226 57.8887 117.555L55.3123 117.391C53.7775 116.97 52.9461 116.422 52.8182 115.746C52.672 114.997 52.8821 114.138 53.4486 113.17C54.0698 112.128 54.755 111.662 55.5042 111.772Z" fill="#0D131A"/>
<path d="M36.4005 112.238C36.8573 113.992 36.903 114.978 36.5375 115.198C36.0625 115.472 35.1306 115.417 33.7419 115.033C32.2984 114.631 31.4944 114.147 31.3299 113.581C31.1107 112.905 31.3665 112.037 32.0974 110.977C32.8465 109.881 33.5957 109.36 34.3449 109.415C35.2219 109.469 35.9071 110.41 36.4005 112.238ZM32.4811 113.142C32.5359 113.526 33.0384 113.873 33.9886 114.184C34.9022 114.476 35.4595 114.531 35.6605 114.348C35.8066 114.22 35.7244 113.608 35.4138 112.512C35.0849 111.342 34.7012 110.721 34.2626 110.648C33.8972 110.593 33.4952 110.84 33.0567 111.388C32.5633 111.973 32.3715 112.557 32.4811 113.142Z" fill="#0D131A"/>
<path d="M26.4238 113.307C26.4238 113.727 26.9263 114.165 27.9313 114.622C28.918 115.061 29.4844 115.18 29.6306 114.979C29.795 114.778 29.7494 114.184 29.4935 113.197C29.2195 112.137 28.8631 111.562 28.4246 111.47C28.0043 111.379 27.5658 111.571 27.109 112.046C26.6887 112.484 26.4603 112.886 26.4238 113.252V113.307ZM26.3964 111.141C27.1821 110.41 27.8764 110.1 28.4794 110.209C29.393 110.374 30.0508 111.333 30.4528 113.087C30.8366 114.75 30.8457 115.737 30.4802 116.047C30.1331 116.376 29.1646 116.194 27.5749 115.499C25.9122 114.805 25.1173 114.019 25.1904 113.142C25.2452 112.521 25.6472 111.854 26.3964 111.141Z" fill="#0D131A"/>
<path d="M73.8952 110.347C73.95 110.712 74.4799 111.059 75.4849 111.388C76.4533 111.699 77.0015 111.772 77.1294 111.607C77.2573 111.443 77.1751 110.876 76.8827 109.908C76.5721 108.885 76.2341 108.355 75.8686 108.318C75.558 108.282 75.1377 108.519 74.6078 109.031C74.0779 109.561 73.8404 109.999 73.8952 110.347ZM73.9226 108.51C74.8728 107.597 75.622 107.231 76.1701 107.414C76.8645 107.67 77.4309 108.538 77.8695 110.018C78.2897 111.425 78.3628 112.256 78.0887 112.512C77.8146 112.749 76.9193 112.667 75.4027 112.265C73.8495 111.845 72.9816 111.379 72.7989 110.867C72.5796 110.228 72.9542 109.442 73.9226 108.51Z" fill="#0D131A"/>
<path d="M70.4144 112.539C71.2184 112.813 71.6843 112.886 71.8123 112.758C71.9402 112.631 71.9127 112.11 71.73 111.196C71.529 110.228 71.2458 109.698 70.8804 109.606C70.5149 109.515 70.0855 109.716 69.5922 110.209C69.0988 110.721 68.8978 111.169 68.9892 111.552C69.0988 111.936 69.5739 112.265 70.4144 112.539ZM71.0996 108.592C71.7026 108.739 72.2051 109.533 72.6071 110.977C72.9725 112.384 73.0091 113.307 72.7167 113.745C72.534 114.019 71.7209 113.9 70.2774 113.389C68.779 112.859 67.9751 112.302 67.8654 111.717C67.7375 111.132 68.0847 110.429 68.9069 109.606C69.7475 108.766 70.4784 108.428 71.0996 108.592Z" fill="#0D131A"/>
<path d="M64.8779 112.484C65.6819 112.923 66.1661 113.087 66.3305 112.978C66.4767 112.886 66.495 112.356 66.3853 111.388C66.2574 110.365 66.0016 109.789 65.6179 109.661C65.2525 109.533 64.8139 109.661 64.3023 110.045C63.809 110.41 63.5714 110.776 63.5897 111.141C63.608 111.58 64.0374 112.028 64.8779 112.484ZM65.9194 108.647C66.6868 108.812 67.1437 109.716 67.2898 111.361C67.4177 112.914 67.3264 113.8 67.0157 114.019C66.6686 114.239 65.8098 113.983 64.4393 113.252C63.0506 112.484 62.3289 111.817 62.2741 111.251C62.2193 110.721 62.6121 110.118 63.4526 109.442C64.348 108.748 65.1702 108.483 65.9194 108.647Z" fill="#0D131A"/>
<path d="M21.6821 114.211C22.6505 114.704 23.2078 114.86 23.354 114.677C23.5185 114.494 23.4911 113.919 23.2718 112.95C23.0343 111.945 22.751 111.397 22.4221 111.306C22.0384 111.178 21.5725 111.324 21.0243 111.744C20.4761 112.165 20.202 112.576 20.202 112.978C20.2203 113.288 20.7137 113.699 21.6821 114.211ZM22.6688 110.072C23.4545 110.237 24.0118 111.196 24.3407 112.95C24.6514 114.631 24.6422 115.572 24.3133 115.773C23.7469 116.157 22.7236 115.956 21.2436 115.17C19.7818 114.403 19.0235 113.718 18.9687 113.115C18.8956 112.42 19.325 111.699 20.2569 110.95C21.1705 110.219 21.9745 109.926 22.6688 110.072Z" fill="#0D131A"/>
</g>
<defs>
<clipPath id="clip0_56_192">
<rect width="124" height="119.611" fill="white"/>
</clipPath>
</defs>
</svg>
